<svg preserveAspectRatio="none" width="100%" height="100%" overflow="visible" style="display: block;" viewBox="0 0 80 80" fill="none" xmlns="http://www.w3.org/2000/svg">
<g id="play (4) 1">
<path id="Vector" d="M16.6667 16.6667C16.6663 15.4936 16.9755 14.3413 17.5629 13.326C18.1504 12.3106 18.9954 11.4683 20.0125 10.884C21.0296 10.2997 22.1829 9.99408 23.356 9.99806C24.529 10.002 25.6802 10.3155 26.6933 10.9067L66.6833 34.2333C67.6925 34.8189 68.5304 35.6592 69.1131 36.67C69.6959 37.6809 70.0031 38.827 70.0041 39.9938C70.0051 41.1606 69.6999 42.3072 69.1189 43.3191C68.5379 44.331 67.7015 45.1727 66.6933 45.76L26.6933 69.0933C25.6802 69.6845 24.529 69.998 23.356 70.0019C22.1829 70.0059 21.0296 69.7003 20.0125 69.116C18.9954 68.5317 18.1504 67.6894 17.5629 66.674C16.9755 65.6587 16.6663 64.5064 16.6667 63.3333V16.6667Z" fill="var(--fill-0, white)" stroke="var(--stroke-0, white)" stroke-width="2" stroke-linecap="round" stroke-linejoin="round"/>
</g>
</svg>
