<svg xmlns="http://www.w3.org/2000/svg" width="222" height="50" viewBox="0 0 222 50" fill="none">
  <g filter="url(#filter0_d_2021_363)">
    <path d="M110.01 4.78135C110.101 4.5969 110.242 4.44163 110.417 4.33307C110.592 4.22452 110.793 4.16699 110.999 4.16699C111.205 4.16699 111.407 4.22452 111.582 4.33307C111.756 4.44163 111.897 4.5969 111.989 4.78135L116.801 14.5293C117.118 15.1709 117.586 15.726 118.165 16.1469C118.744 16.5678 119.416 16.842 120.124 16.9459L130.887 18.5209C131.091 18.5505 131.282 18.6365 131.44 18.7693C131.597 18.902 131.715 19.0762 131.778 19.2722C131.842 19.4682 131.85 19.678 131.8 19.8781C131.751 20.0782 131.647 20.2604 131.499 20.4043L123.716 27.9834C123.203 28.4836 122.819 29.1011 122.597 29.7827C122.375 30.4642 122.322 31.1895 122.443 31.8959L124.28 42.6043C124.316 42.8081 124.294 43.0179 124.217 43.2099C124.139 43.4018 124.009 43.568 123.842 43.6897C123.675 43.8113 123.476 43.8834 123.27 43.8978C123.063 43.9122 122.857 43.8682 122.674 43.7709L113.053 38.7126C112.419 38.3797 111.714 38.2058 110.998 38.2058C110.282 38.2058 109.577 38.3797 108.943 38.7126L99.3242 43.7709C99.1415 43.8676 98.9354 43.9111 98.7293 43.8965C98.5232 43.8818 98.3253 43.8096 98.1581 43.6881C97.991 43.5665 97.8613 43.4005 97.7839 43.2089C97.7064 43.0173 97.6843 42.8078 97.72 42.6043L99.5554 31.898C99.6767 31.1912 99.6242 30.4655 99.4024 29.7835C99.1806 29.1016 98.7963 28.4838 98.2825 27.9834L90.4992 20.4064C90.3504 20.2627 90.245 20.0801 90.1949 19.8794C90.1449 19.6788 90.1522 19.4681 90.216 19.2713C90.2799 19.0746 90.3977 18.8998 90.556 18.7667C90.7144 18.6337 90.9069 18.5478 91.1117 18.5189L101.872 16.9459C102.581 16.8428 103.254 16.569 103.834 16.148C104.413 15.727 104.882 15.1715 105.199 14.5293L110.01 4.78135Z" fill="url(#paint0_linear_2021_363)"/>
    <path d="M110.01 4.78135C110.101 4.5969 110.242 4.44163 110.417 4.33307C110.592 4.22452 110.793 4.16699 110.999 4.16699C111.205 4.16699 111.407 4.22452 111.582 4.33307C111.756 4.44163 111.897 4.5969 111.989 4.78135L116.801 14.5293C117.118 15.1709 117.586 15.726 118.165 16.1469C118.744 16.5678 119.416 16.842 120.124 16.9459L130.887 18.5209C131.091 18.5505 131.282 18.6365 131.44 18.7693C131.597 18.902 131.715 19.0762 131.778 19.2722C131.842 19.4682 131.85 19.678 131.8 19.8781C131.751 20.0782 131.647 20.2604 131.499 20.4043L123.716 27.9834C123.203 28.4836 122.819 29.1011 122.597 29.7827C122.375 30.4642 122.322 31.1895 122.443 31.8959L124.28 42.6043C124.316 42.8081 124.294 43.0179 124.217 43.2099C124.139 43.4018 124.009 43.568 123.842 43.6897C123.675 43.8113 123.476 43.8834 123.27 43.8978C123.063 43.9122 122.857 43.8682 122.674 43.7709L113.053 38.7126C112.419 38.3797 111.714 38.2058 110.998 38.2058C110.282 38.2058 109.577 38.3797 108.943 38.7126L99.3242 43.7709C99.1415 43.8676 98.9354 43.9111 98.7293 43.8965C98.5232 43.8818 98.3253 43.8096 98.1581 43.6881C97.991 43.5665 97.8613 43.4005 97.7839 43.2089C97.7064 43.0173 97.6843 42.8078 97.72 42.6043L99.5554 31.898C99.6767 31.1912 99.6242 30.4655 99.4024 29.7835C99.1806 29.1016 98.7963 28.4838 98.2825 27.9834L90.4992 20.4064C90.3504 20.2627 90.245 20.0801 90.1949 19.8794C90.1449 19.6788 90.1522 19.4681 90.216 19.2713C90.2799 19.0746 90.3977 18.8998 90.556 18.7667C90.7144 18.6337 90.9069 18.5478 91.1117 18.5189L101.872 16.9459C102.581 16.8428 103.254 16.569 103.834 16.148C104.413 15.727 104.882 15.1715 105.199 14.5293L110.01 4.78135Z" stroke="url(#paint1_linear_2021_363)" stroke-width="2" stroke-linecap="round" stroke-linejoin="round"/>
  </g>
  <g clip-path="url(#clip0_2021_363)">
    <g filter="url(#filter1_d_2021_363)">
      <path d="M163.208 8.82499C163.281 8.67742 163.394 8.55321 163.534 8.46636C163.674 8.37952 163.835 8.3335 164 8.3335C164.164 8.3335 164.326 8.37952 164.466 8.46636C164.606 8.55321 164.718 8.67742 164.791 8.82499L168.641 16.6233C168.895 17.1366 169.269 17.5807 169.732 17.9174C170.195 18.2541 170.733 18.4735 171.3 18.5567L179.91 19.8167C180.073 19.8403 180.226 19.9091 180.352 20.0153C180.478 20.1215 180.572 20.2609 180.623 20.4177C180.674 20.5744 180.68 20.7423 180.641 20.9024C180.601 21.0624 180.518 21.2082 180.4 21.3233L174.173 27.3867C173.762 27.7868 173.455 28.2808 173.278 28.826C173.1 29.3713 173.058 29.9515 173.155 30.5167L174.625 39.0833C174.654 39.2464 174.636 39.4143 174.574 39.5678C174.512 39.7213 174.408 39.8543 174.274 39.9516C174.14 40.049 173.981 40.1066 173.816 40.1181C173.651 40.1296 173.486 40.0945 173.34 40.0166L165.643 35.97C165.136 35.7037 164.572 35.5646 163.999 35.5646C163.426 35.5646 162.862 35.7037 162.355 35.97L154.66 40.0166C154.514 40.094 154.349 40.1288 154.184 40.1171C154.019 40.1054 153.861 40.0476 153.727 39.9503C153.593 39.8531 153.489 39.7203 153.428 39.567C153.366 39.4137 153.348 39.2462 153.376 39.0833L154.845 30.5183C154.942 29.9529 154.9 29.3723 154.722 28.8267C154.545 28.2811 154.237 27.7869 153.826 27.3867L147.6 21.325C147.481 21.21 147.396 21.064 147.356 20.9034C147.316 20.7429 147.322 20.5743 147.373 20.417C147.424 20.2596 147.519 20.1197 147.645 20.0133C147.772 19.9069 147.926 19.8381 148.09 19.815L156.698 18.5567C157.265 18.4741 157.804 18.2551 158.267 17.9183C158.731 17.5815 159.106 17.1371 159.36 16.6233L163.208 8.82499Z" fill="url(#paint2_linear_2021_363)"/>
      <path d="M163.208 8.82499C163.281 8.67742 163.394 8.55321 163.534 8.46636C163.674 8.37952 163.835 8.3335 164 8.3335C164.164 8.3335 164.326 8.37952 164.466 8.46636C164.606 8.55321 164.718 8.67742 164.791 8.82499L168.641 16.6233C168.895 17.1366 169.269 17.5807 169.732 17.9174C170.195 18.2541 170.733 18.4735 171.3 18.5567L179.91 19.8167C180.073 19.8403 180.226 19.9091 180.352 20.0153C180.478 20.1215 180.572 20.2609 180.623 20.4177C180.674 20.5744 180.68 20.7423 180.641 20.9024C180.601 21.0624 180.518 21.2082 180.4 21.3233L174.173 27.3867C173.762 27.7868 173.455 28.2808 173.278 28.826C173.1 29.3713 173.058 29.9515 173.155 30.5167L174.625 39.0833C174.654 39.2464 174.636 39.4143 174.574 39.5678C174.512 39.7213 174.408 39.8543 174.274 39.9516C174.14 40.049 173.981 40.1066 173.816 40.1181C173.651 40.1296 173.486 40.0945 173.34 40.0166L165.643 35.97C165.136 35.7037 164.572 35.5646 163.999 35.5646C163.426 35.5646 162.862 35.7037 162.355 35.97L154.66 40.0166C154.514 40.094 154.349 40.1288 154.184 40.1171C154.019 40.1054 153.861 40.0476 153.727 39.9503C153.593 39.8531 153.489 39.7203 153.428 39.567C153.366 39.4137 153.348 39.2462 153.376 39.0833L154.845 30.5183C154.942 29.9529 154.9 29.3723 154.722 28.8267C154.545 28.2811 154.237 27.7869 153.826 27.3867L147.6 21.325C147.481 21.21 147.396 21.064 147.356 20.9034C147.316 20.7429 147.322 20.5743 147.373 20.417C147.424 20.2596 147.519 20.1197 147.645 20.0133C147.772 19.9069 147.926 19.8381 148.09 19.815L156.698 18.5567C157.265 18.4741 157.804 18.2551 158.267 17.9183C158.731 17.5815 159.106 17.1371 159.36 16.6233L163.208 8.82499Z" stroke="url(#paint3_linear_2021_363)" stroke-width="2" stroke-linecap="round" stroke-linejoin="round"/>
    </g>
  </g>
  <g clip-path="url(#clip1_2021_363)">
    <g filter="url(#filter2_d_2021_363)">
      <path d="M57.2081 8.82499C57.2811 8.67742 57.3939 8.55321 57.5338 8.46636C57.6737 8.37952 57.8351 8.3335 57.9997 8.3335C58.1644 8.3335 58.3258 8.37952 58.4657 8.46636C58.6055 8.55321 58.7184 8.67742 58.7914 8.82499L62.6414 16.6233C62.895 17.1366 63.2694 17.5807 63.7325 17.9174C64.1955 18.2541 64.7333 18.4735 65.2997 18.5567L73.9097 19.8167C74.0729 19.8403 74.2262 19.9091 74.3522 20.0153C74.4783 20.1215 74.5721 20.2609 74.6231 20.4177C74.6741 20.5744 74.6802 20.7423 74.6407 20.9024C74.6012 21.0624 74.5178 21.2082 74.3997 21.3233L68.1731 27.3867C67.7624 27.7868 67.4552 28.2808 67.2778 28.826C67.1004 29.3713 67.0582 29.9515 67.1547 30.5167L68.6247 39.0833C68.6535 39.2464 68.6359 39.4143 68.5739 39.5678C68.5119 39.7213 68.408 39.8543 68.274 39.9516C68.14 40.049 67.9814 40.1066 67.8162 40.1181C67.651 40.1296 67.4859 40.0945 67.3397 40.0166L59.6431 35.97C59.1359 35.7037 58.5717 35.5646 57.9989 35.5646C57.4261 35.5646 56.8619 35.7037 56.3547 35.97L48.6597 40.0166C48.5136 40.094 48.3487 40.1288 48.1838 40.1171C48.0189 40.1054 47.8606 40.0476 47.7269 39.9503C47.5932 39.8531 47.4895 39.7203 47.4275 39.567C47.3655 39.4137 47.3478 39.2462 47.3764 39.0833L48.8447 30.5183C48.9417 29.9529 48.8997 29.3723 48.7223 28.8267C48.5449 28.2811 48.2374 27.7869 47.8264 27.3867L41.5997 21.325C41.4807 21.21 41.3964 21.064 41.3563 20.9034C41.3163 20.7429 41.3221 20.5743 41.3732 20.417C41.4243 20.2596 41.5185 20.1197 41.6452 20.0133C41.7719 19.9069 41.9259 19.8381 42.0897 19.815L50.6981 18.5567C51.2652 18.4741 51.8037 18.2551 52.2674 17.9183C52.731 17.5815 53.1059 17.1371 53.3597 16.6233L57.2081 8.82499Z" fill="url(#paint4_linear_2021_363)"/>
      <path d="M57.2081 8.82499C57.2811 8.67742 57.3939 8.55321 57.5338 8.46636C57.6737 8.37952 57.8351 8.3335 57.9997 8.3335C58.1644 8.3335 58.3258 8.37952 58.4657 8.46636C58.6055 8.55321 58.7184 8.67742 58.7914 8.82499L62.6414 16.6233C62.895 17.1366 63.2694 17.5807 63.7325 17.9174C64.1955 18.2541 64.7333 18.4735 65.2997 18.5567L73.9097 19.8167C74.0729 19.8403 74.2262 19.9091 74.3522 20.0153C74.4783 20.1215 74.5721 20.2609 74.6231 20.4177C74.6741 20.5744 74.6802 20.7423 74.6407 20.9024C74.6012 21.0624 74.5178 21.2082 74.3997 21.3233L68.1731 27.3867C67.7624 27.7868 67.4552 28.2808 67.2778 28.826C67.1004 29.3713 67.0582 29.9515 67.1547 30.5167L68.6247 39.0833C68.6535 39.2464 68.6359 39.4143 68.5739 39.5678C68.5119 39.7213 68.408 39.8543 68.274 39.9516C68.14 40.049 67.9814 40.1066 67.8162 40.1181C67.651 40.1296 67.4859 40.0945 67.3397 40.0166L59.6431 35.97C59.1359 35.7037 58.5717 35.5646 57.9989 35.5646C57.4261 35.5646 56.8619 35.7037 56.3547 35.97L48.6597 40.0166C48.5136 40.094 48.3487 40.1288 48.1838 40.1171C48.0189 40.1054 47.8606 40.0476 47.7269 39.9503C47.5932 39.8531 47.4895 39.7203 47.4275 39.567C47.3655 39.4137 47.3478 39.2462 47.3764 39.0833L48.8447 30.5183C48.9417 29.9529 48.8997 29.3723 48.7223 28.8267C48.5449 28.2811 48.2374 27.7869 47.8264 27.3867L41.5997 21.325C41.4807 21.21 41.3964 21.064 41.3563 20.9034C41.3163 20.7429 41.3221 20.5743 41.3732 20.417C41.4243 20.2596 41.5185 20.1197 41.6452 20.0133C41.7719 19.9069 41.9259 19.8381 42.0897 19.815L50.6981 18.5567C51.2652 18.4741 51.8037 18.2551 52.2674 17.9183C52.731 17.5815 53.1059 17.1371 53.3597 16.6233L57.2081 8.82499Z" stroke="url(#paint5_linear_2021_363)" stroke-width="2" stroke-linecap="round" stroke-linejoin="round"/>
    </g>
  </g>
  <g clip-path="url(#clip2_2021_363)">
    <g filter="url(#filter3_d_2021_363)">
      <path d="M206.407 12.8686C206.461 12.7579 206.546 12.6648 206.651 12.5996C206.756 12.5345 206.877 12.5 207 12.5C207.124 12.5 207.245 12.5345 207.35 12.5996C207.455 12.6648 207.539 12.7579 207.594 12.8686L210.482 18.7174C210.672 19.1023 210.953 19.4354 211.3 19.6879C211.647 19.9405 212.05 20.105 212.475 20.1674L218.933 21.1124C219.055 21.1301 219.17 21.1817 219.265 21.2614C219.359 21.341 219.43 21.4456 219.468 21.5631C219.506 21.6807 219.511 21.8066 219.481 21.9267C219.451 22.0467 219.389 22.1561 219.3 22.2424L214.63 26.7899C214.322 27.09 214.092 27.4605 213.959 27.8694C213.826 28.2783 213.794 28.7135 213.867 29.1374L214.969 35.5624C214.991 35.6847 214.977 35.8106 214.931 35.9257C214.884 36.0409 214.806 36.1406 214.706 36.2136C214.605 36.2866 214.487 36.3299 214.363 36.3385C214.239 36.3471 214.115 36.3207 214.005 36.2624L208.233 33.2274C207.852 33.0276 207.429 32.9233 207 32.9233C206.57 32.9233 206.147 33.0276 205.767 33.2274L199.995 36.2624C199.886 36.3204 199.762 36.3465 199.638 36.3377C199.515 36.3289 199.396 36.2856 199.296 36.2126C199.195 36.1397 199.118 36.0401 199.071 35.9251C199.025 35.8102 199.011 35.6845 199.033 35.5624L200.134 29.1386C200.207 28.7145 200.175 28.2791 200.042 27.8699C199.909 27.4607 199.679 27.0901 199.37 26.7899L194.7 22.2436C194.611 22.1574 194.548 22.0479 194.518 21.9275C194.488 21.8071 194.492 21.6806 194.53 21.5626C194.569 21.4446 194.639 21.3397 194.734 21.2598C194.829 21.18 194.945 21.1285 195.068 21.1111L201.524 20.1674C201.949 20.1055 202.353 19.9412 202.701 19.6886C203.049 19.436 203.33 19.1027 203.52 18.7174L206.407 12.8686Z" fill="url(#paint6_linear_2021_363)"/>
      <path d="M206.407 12.8686C206.461 12.7579 206.546 12.6648 206.651 12.5996C206.756 12.5345 206.877 12.5 207 12.5C207.124 12.5 207.245 12.5345 207.35 12.5996C207.455 12.6648 207.539 12.7579 207.594 12.8686L210.482 18.7174C210.672 19.1023 210.953 19.4354 211.3 19.6879C211.647 19.9405 212.05 20.105 212.475 20.1674L218.933 21.1124C219.055 21.1301 219.17 21.1817 219.265 21.2614C219.359 21.341 219.43 21.4456 219.468 21.5631C219.506 21.6807 219.511 21.8066 219.481 21.9267C219.451 22.0467 219.389 22.1561 219.3 22.2424L214.63 26.7899C214.322 27.09 214.092 27.4605 213.959 27.8694C213.826 28.2783 213.794 28.7135 213.867 29.1374L214.969 35.5624C214.991 35.6847 214.977 35.8106 214.931 35.9257C214.884 36.0409 214.806 36.1406 214.706 36.2136C214.605 36.2866 214.487 36.3299 214.363 36.3385C214.239 36.3471 214.115 36.3207 214.005 36.2624L208.233 33.2274C207.852 33.0276 207.429 32.9233 207 32.9233C206.57 32.9233 206.147 33.0276 205.767 33.2274L199.995 36.2624C199.886 36.3204 199.762 36.3465 199.638 36.3377C199.515 36.3289 199.396 36.2856 199.296 36.2126C199.195 36.1397 199.118 36.0401 199.071 35.9251C199.025 35.8102 199.011 35.6845 199.033 35.5624L200.134 29.1386C200.207 28.7145 200.175 28.2791 200.042 27.8699C199.909 27.4607 199.679 27.0901 199.37 26.7899L194.7 22.2436C194.611 22.1574 194.548 22.0479 194.518 21.9275C194.488 21.8071 194.492 21.6806 194.53 21.5626C194.569 21.4446 194.639 21.3397 194.734 21.2598C194.829 21.18 194.945 21.1285 195.068 21.1111L201.524 20.1674C201.949 20.1055 202.353 19.9412 202.701 19.6886C203.049 19.436 203.33 19.1027 203.52 18.7174L206.407 12.8686Z" stroke="url(#paint7_linear_2021_363)" stroke-width="2" stroke-linecap="round" stroke-linejoin="round"/>
    </g>
  </g>
  <g clip-path="url(#clip3_2021_363)">
    <g filter="url(#filter4_d_2021_363)">
      <path d="M14.4065 12.8686C14.4613 12.7579 14.5459 12.6648 14.6509 12.5996C14.7558 12.5345 14.8768 12.5 15.0003 12.5C15.1238 12.5 15.2448 12.5345 15.3497 12.5996C15.4546 12.6648 15.5393 12.7579 15.594 12.8686L18.4815 18.7174C18.6718 19.1023 18.9526 19.4354 19.2998 19.6879C19.6471 19.9405 20.0505 20.105 20.4753 20.1674L26.9328 21.1124C27.0552 21.1301 27.1701 21.1817 27.2647 21.2614C27.3592 21.341 27.4296 21.4456 27.4678 21.5631C27.5061 21.6807 27.5106 21.8066 27.481 21.9267C27.4514 22.0467 27.3888 22.1561 27.3003 22.2424L22.6303 26.7899C22.3223 27.09 22.0919 27.4605 21.9588 27.8694C21.8258 28.2783 21.7941 28.7135 21.8665 29.1374L22.969 35.5624C22.9906 35.6847 22.9774 35.8106 22.9309 35.9257C22.8844 36.0409 22.8065 36.1406 22.706 36.2136C22.6055 36.2866 22.4865 36.3299 22.3626 36.3385C22.2387 36.3471 22.1149 36.3207 22.0053 36.2624L16.2328 33.2274C15.8524 33.0276 15.4293 32.9233 14.9997 32.9233C14.5701 32.9233 14.1469 33.0276 13.7665 33.2274L7.9953 36.2624C7.88571 36.3204 7.76204 36.3465 7.63836 36.3377C7.51468 36.3289 7.39594 36.2856 7.29567 36.2126C7.19539 36.1397 7.11759 36.0401 7.07112 35.9251C7.02465 35.8102 7.01137 35.6845 7.0328 35.5624L8.13405 29.1386C8.20679 28.7145 8.17528 28.2791 8.04222 27.8699C7.90916 27.4607 7.67856 27.0901 7.3703 26.7899L2.7003 22.2436C2.61104 22.1574 2.54779 22.0479 2.51775 21.9275C2.48771 21.8071 2.49209 21.6806 2.53039 21.5626C2.5687 21.4446 2.63938 21.3397 2.73439 21.2598C2.8294 21.18 2.94493 21.1285 3.0678 21.1111L9.52405 20.1674C9.94937 20.1055 10.3533 19.9412 10.701 19.6886C11.0488 19.436 11.3299 19.1027 11.5203 18.7174L14.4065 12.8686Z" fill="url(#paint8_linear_2021_363)"/>
      <path d="M14.4065 12.8686C14.4613 12.7579 14.5459 12.6648 14.6509 12.5996C14.7558 12.5345 14.8768 12.5 15.0003 12.5C15.1238 12.5 15.2448 12.5345 15.3497 12.5996C15.4546 12.6648 15.5393 12.7579 15.594 12.8686L18.4815 18.7174C18.6718 19.1023 18.9526 19.4354 19.2998 19.6879C19.6471 19.9405 20.0505 20.105 20.4753 20.1674L26.9328 21.1124C27.0552 21.1301 27.1701 21.1817 27.2647 21.2614C27.3592 21.341 27.4296 21.4456 27.4678 21.5631C27.5061 21.6807 27.5106 21.8066 27.481 21.9267C27.4514 22.0467 27.3888 22.1561 27.3003 22.2424L22.6303 26.7899C22.3223 27.09 22.0919 27.4605 21.9588 27.8694C21.8258 28.2783 21.7941 28.7135 21.8665 29.1374L22.969 35.5624C22.9906 35.6847 22.9774 35.8106 22.9309 35.9257C22.8844 36.0409 22.8065 36.1406 22.706 36.2136C22.6055 36.2866 22.4865 36.3299 22.3626 36.3385C22.2387 36.3471 22.1149 36.3207 22.0053 36.2624L16.2328 33.2274C15.8524 33.0276 15.4293 32.9233 14.9997 32.9233C14.5701 32.9233 14.1469 33.0276 13.7665 33.2274L7.9953 36.2624C7.88571 36.3204 7.76204 36.3465 7.63836 36.3377C7.51468 36.3289 7.39594 36.2856 7.29567 36.2126C7.19539 36.1397 7.11759 36.0401 7.07112 35.9251C7.02465 35.8102 7.01137 35.6845 7.0328 35.5624L8.13405 29.1386C8.20679 28.7145 8.17528 28.2791 8.04222 27.8699C7.90916 27.4607 7.67856 27.0901 7.3703 26.7899L2.7003 22.2436C2.61104 22.1574 2.54779 22.0479 2.51775 21.9275C2.48771 21.8071 2.49209 21.6806 2.53039 21.5626C2.5687 21.4446 2.63938 21.3397 2.73439 21.2598C2.8294 21.18 2.94493 21.1285 3.0678 21.1111L9.52405 20.1674C9.94937 20.1055 10.3533 19.9412 10.701 19.6886C11.0488 19.436 11.3299 19.1027 11.5203 18.7174L14.4065 12.8686Z" stroke="url(#paint9_linear_2021_363)" stroke-width="2" stroke-linecap="round" stroke-linejoin="round"/>
    </g>
  </g>
  <defs>
    <filter id="filter0_d_2021_363" x="87.1621" y="3.16699" width="47.6699" height="45.7334" filterUnits="userSpaceOnUse" color-interpolation-filters="sRGB">
      <feFlood flood-opacity="0" result="BackgroundImageFix"/>
      <feColorMatrix in="SourceAlpha" type="matrix" values="0 0 0 0 0 0 0 0 0 0 0 0 0 0 0 0 0 0 127 0" result="hardAlpha"/>
      <feOffset dy="2"/>
      <feGaussianBlur stdDeviation="1"/>
      <feComposite in2="hardAlpha" operator="out"/>
      <feColorMatrix type="matrix" values="0 0 0 0 0.0941176 0 0 0 0 0.509804 0 0 0 0 0.376471 0 0 0 0.3 0"/>
      <feBlend mode="normal" in2="BackgroundImageFix" result="effect1_dropShadow_2021_363"/>
      <feBlend mode="normal" in="SourceGraphic" in2="effect1_dropShadow_2021_363" result="shape"/>
    </filter>
    <filter id="filter1_d_2021_363" x="144.33" y="7.3335" width="39.3359" height="37.7866" filterUnits="userSpaceOnUse" color-interpolation-filters="sRGB">
      <feFlood flood-opacity="0" result="BackgroundImageFix"/>
      <feColorMatrix in="SourceAlpha" type="matrix" values="0 0 0 0 0 0 0 0 0 0 0 0 0 0 0 0 0 0 127 0" result="hardAlpha"/>
      <feOffset dy="2"/>
      <feGaussianBlur stdDeviation="1"/>
      <feComposite in2="hardAlpha" operator="out"/>
      <feColorMatrix type="matrix" values="0 0 0 0 0.0941176 0 0 0 0 0.509804 0 0 0 0 0.376471 0 0 0 0.3 0"/>
      <feBlend mode="normal" in2="BackgroundImageFix" result="effect1_dropShadow_2021_363"/>
      <feBlend mode="normal" in="SourceGraphic" in2="effect1_dropShadow_2021_363" result="shape"/>
    </filter>
    <filter id="filter2_d_2021_363" x="38.3301" y="7.3335" width="39.3359" height="37.7866" filterUnits="userSpaceOnUse" color-interpolation-filters="sRGB">
      <feFlood flood-opacity="0" result="BackgroundImageFix"/>
      <feColorMatrix in="SourceAlpha" type="matrix" values="0 0 0 0 0 0 0 0 0 0 0 0 0 0 0 0 0 0 127 0" result="hardAlpha"/>
      <feOffset dy="2"/>
      <feGaussianBlur stdDeviation="1"/>
      <feComposite in2="hardAlpha" operator="out"/>
      <feColorMatrix type="matrix" values="0 0 0 0 0.0941176 0 0 0 0 0.509804 0 0 0 0 0.376471 0 0 0 0.3 0"/>
      <feBlend mode="normal" in2="BackgroundImageFix" result="effect1_dropShadow_2021_363"/>
      <feBlend mode="normal" in="SourceGraphic" in2="effect1_dropShadow_2021_363" result="shape"/>
    </filter>
    <filter id="filter3_d_2021_363" x="191.498" y="11.5" width="31.002" height="29.8398" filterUnits="userSpaceOnUse" color-interpolation-filters="sRGB">
      <feFlood flood-opacity="0" result="BackgroundImageFix"/>
      <feColorMatrix in="SourceAlpha" type="matrix" values="0 0 0 0 0 0 0 0 0 0 0 0 0 0 0 0 0 0 127 0" result="hardAlpha"/>
      <feOffset dy="2"/>
      <feGaussianBlur stdDeviation="1"/>
      <feComposite in2="hardAlpha" operator="out"/>
      <feColorMatrix type="matrix" values="0 0 0 0 0.0941176 0 0 0 0 0.509804 0 0 0 0 0.376471 0 0 0 0.3 0"/>
      <feBlend mode="normal" in2="BackgroundImageFix" result="effect1_dropShadow_2021_363"/>
      <feBlend mode="normal" in="SourceGraphic" in2="effect1_dropShadow_2021_363" result="shape"/>
    </filter>
    <filter id="filter4_d_2021_363" x="-0.501953" y="11.5" width="31.002" height="29.8398" filterUnits="userSpaceOnUse" color-interpolation-filters="sRGB">
      <feFlood flood-opacity="0" result="BackgroundImageFix"/>
      <feColorMatrix in="SourceAlpha" type="matrix" values="0 0 0 0 0 0 0 0 0 0 0 0 0 0 0 0 0 0 127 0" result="hardAlpha"/>
      <feOffset dy="2"/>
      <feGaussianBlur stdDeviation="1"/>
      <feComposite in2="hardAlpha" operator="out"/>
      <feColorMatrix type="matrix" values="0 0 0 0 0.0941176 0 0 0 0 0.509804 0 0 0 0 0.376471 0 0 0 0.3 0"/>
      <feBlend mode="normal" in2="BackgroundImageFix" result="effect1_dropShadow_2021_363"/>
      <feBlend mode="normal" in="SourceGraphic" in2="effect1_dropShadow_2021_363" result="shape"/>
    </filter>
    <linearGradient id="paint0_linear_2021_363" x1="110.997" y1="4.16699" x2="110.997" y2="43.9005" gradientUnits="userSpaceOnUse">
      <stop stop-color="#1B9E74"/>
      <stop offset="1" stop-color="#28B789"/>
    </linearGradient>
    <linearGradient id="paint1_linear_2021_363" x1="110.997" y1="4.16699" x2="110.997" y2="43.9005" gradientUnits="userSpaceOnUse">
      <stop stop-color="#28B789"/>
      <stop offset="1" stop-color="#A0BE1E"/>
    </linearGradient>
    <linearGradient id="paint2_linear_2021_363" x1="163.998" y1="8.3335" x2="163.998" y2="40.1203" gradientUnits="userSpaceOnUse">
      <stop stop-color="#1B9E74"/>
      <stop offset="1" stop-color="#28B789"/>
    </linearGradient>
    <linearGradient id="paint3_linear_2021_363" x1="163.998" y1="8.3335" x2="163.998" y2="40.1203" gradientUnits="userSpaceOnUse">
      <stop stop-color="#28B789"/>
      <stop offset="1" stop-color="#A0BE1E"/>
    </linearGradient>
    <linearGradient id="paint4_linear_2021_363" x1="57.9982" y1="8.3335" x2="57.9982" y2="40.1203" gradientUnits="userSpaceOnUse">
      <stop stop-color="#1B9E74"/>
      <stop offset="1" stop-color="#28B789"/>
    </linearGradient>
    <linearGradient id="paint5_linear_2021_363" x1="57.9982" y1="8.3335" x2="57.9982" y2="40.1203" gradientUnits="userSpaceOnUse">
      <stop stop-color="#28B789"/>
      <stop offset="1" stop-color="#A0BE1E"/>
    </linearGradient>
    <linearGradient id="paint6_linear_2021_363" x1="206.999" y1="12.5" x2="206.999" y2="36.3401" gradientUnits="userSpaceOnUse">
      <stop stop-color="#1B9E74"/>
      <stop offset="1" stop-color="#28B789"/>
    </linearGradient>
    <linearGradient id="paint7_linear_2021_363" x1="206.999" y1="12.5" x2="206.999" y2="36.3401" gradientUnits="userSpaceOnUse">
      <stop stop-color="#28B789"/>
      <stop offset="1" stop-color="#A0BE1E"/>
    </linearGradient>
    <linearGradient id="paint8_linear_2021_363" x1="14.9992" y1="12.5" x2="14.9992" y2="36.3401" gradientUnits="userSpaceOnUse">
      <stop stop-color="#1B9E74"/>
      <stop offset="1" stop-color="#28B789"/>
    </linearGradient>
    <linearGradient id="paint9_linear_2021_363" x1="14.9992" y1="12.5" x2="14.9992" y2="36.3401" gradientUnits="userSpaceOnUse">
      <stop stop-color="#28B789"/>
      <stop offset="1" stop-color="#A0BE1E"/>
    </linearGradient>
    <clipPath id="clip0_2021_363">
      <rect width="40" height="40" fill="white" transform="translate(144 5)"/>
    </clipPath>
    <clipPath id="clip1_2021_363">
      <rect width="40" height="40" fill="white" transform="translate(38 5)"/>
    </clipPath>
    <clipPath id="clip2_2021_363">
      <rect width="30" height="30" fill="white" transform="translate(192 10)"/>
    </clipPath>
    <clipPath id="clip3_2021_363">
      <rect width="30" height="30" fill="white" transform="translate(0 10)"/>
    </clipPath>
  </defs>
</svg>
