<svg width="40" height="40" viewBox="0 0 40 40" fill="none" xmlns="http://www.w3.org/2000/svg">
  <path d="M14.1667 17.5C17.3883 17.5 20 14.8883 20 11.6667C20 8.44501 17.3883 5.83334 14.1667 5.83334C10.945 5.83334 8.33334 8.44501 8.33334 11.6667C8.33334 14.8883 10.945 17.5 14.1667 17.5Z" stroke="white" stroke-width="2.8" stroke-linecap="round" stroke-linejoin="round"/>
  <path d="M5 31.6667C5 26.6041 9.10405 22.5 14.1667 22.5C19.2293 22.5 23.3333 26.6041 23.3333 31.6667" stroke="white" stroke-width="2.8" stroke-linecap="round" stroke-linejoin="round"/>
  <path d="M26.6667 16.6667C28.9679 16.6667 30.8333 14.8012 30.8333 12.5C30.8333 10.1988 28.9679 8.33334 26.6667 8.33334" stroke="white" stroke-width="2.8" stroke-linecap="round" stroke-linejoin="round"/>
  <path d="M35 31.6667C35 27.5245 31.6419 24.1667 27.5 24.1667" stroke="white" stroke-width="2.8" stroke-linecap="round" stroke-linejoin="round"/>
</svg>
