<svg preserveAspectRatio="none" width="100%" height="100%" overflow="visible" style="display: block;" viewBox="0 0 113.801 134.423" fill="none" xmlns="http://www.w3.org/2000/svg">
<g id="Group 17">
<path id="Subtract" d="M51.8715 2.08301C54.6491 -0.694256 59.1526 -0.69442 61.9301 2.08301L97.1352 37.2891C105.093 45.2467 110.512 55.3853 112.707 66.4229C114.903 77.4603 113.776 88.9008 109.469 99.2979C108.495 101.65 107.366 103.925 106.096 106.109V94.3828C106.096 94.1712 105.982 93.9751 105.799 93.8691L57.4936 65.9805C57.3102 65.8746 57.0842 65.8746 56.9008 65.9805L12.2533 91.7578C11.6521 92.1049 12.0347 93.0246 12.7045 92.8428L38.0746 85.9463C38.4515 85.8439 38.8237 86.128 38.8237 86.5186V114.785C38.8239 115.112 39.0892 115.378 39.4164 115.378H99.3793C96.1887 118.958 92.5423 122.141 88.5121 124.834C79.1551 131.086 68.1543 134.423 56.9008 134.423C45.647 134.423 34.6457 131.086 25.2885 124.834C15.9313 118.582 8.63813 109.695 4.33146 99.2979C0.0248833 88.9009 -1.10218 77.4602 1.09318 66.4229C3.28861 55.3855 8.70803 45.2467 16.6654 37.2891L51.8715 2.08301ZM82.4496 40.2441C82.2586 39.7282 81.5283 39.7282 81.3373 40.2441L80.7211 41.9092C79.1853 46.0622 78.4171 48.1389 76.9018 49.6543C75.3864 51.1697 73.3097 51.9379 69.1567 53.4736L67.4906 54.0908C66.9751 54.2819 66.975 55.0111 67.4906 55.2022L69.1567 55.8184C73.3095 57.3541 75.3887 58.1225 76.9018 59.6377C78.4148 61.1531 79.1853 63.2308 80.7211 67.3838L81.3373 69.0488C81.5285 69.5643 82.2586 69.5644 82.4496 69.0488L83.0658 67.3838C84.6017 63.2305 85.3698 61.1509 86.8852 59.6377C88.4006 58.1246 90.4781 57.3542 94.6313 55.8184L96.2963 55.2022C96.812 55.0112 96.8118 54.282 96.2963 54.0908L94.6313 53.4736C90.4782 51.9378 88.4006 51.1696 86.8852 49.6543C85.3699 48.1389 84.6016 46.062 83.0658 41.9092L82.4496 40.2441ZM64.2192 31.0098C64.0462 30.5435 63.3859 30.5437 63.2123 31.0098C62.5558 32.7909 62.2264 33.6823 61.5766 34.332C60.9291 34.9794 60.0379 35.309 58.2592 35.9678C57.7928 36.1405 57.7909 36.8012 58.2572 36.9746C60.0383 37.6312 60.9297 37.9606 61.5795 38.6104C62.2267 39.2578 62.5565 40.1489 63.2153 41.9297C63.3883 42.3958 64.0475 42.3957 64.2211 41.9297C64.8777 40.1485 65.2081 39.2582 65.8578 38.6084C66.5053 37.9609 67.3954 37.6305 69.1742 36.9717C69.6408 36.7992 69.643 36.1397 69.1772 35.9658C67.3962 35.3093 66.5047 34.9796 65.8549 34.3301C65.2074 33.6826 64.878 32.7908 64.2192 31.0098Z" fill="url(#paint0_linear_0_14)"/>
</g>
<defs>
<linearGradient id="paint0_linear_0_14" x1="56.9003" y1="-2.94592" x2="56.9003" y2="134.423" gradientUnits="userSpaceOnUse">
<stop stop-color="#28B689"/>
<stop offset="1" stop-color="#1C9F75"/>
</linearGradient>
</defs>
</svg>
