<svg preserveAspectRatio="none" width="100%" height="100%" overflow="visible" style="display: block;" viewBox="0 0 40 40" fill="none" xmlns="http://www.w3.org/2000/svg">
<g id="flask-conical 1">
<path id="Vector" d="M23.3333 3.33333V13.3333C23.3331 13.8925 23.4735 14.4427 23.7417 14.9333L32.925 31.7333C33.2028 32.241 33.3436 32.8123 33.3336 33.3909C33.3236 33.9695 33.1632 34.5355 32.868 35.0333C32.5729 35.5311 32.1532 35.9435 31.6503 36.2299C31.1475 36.5163 30.5787 36.6668 30 36.6667H10C9.42129 36.6668 8.85252 36.5163 8.34965 36.2299C7.84677 35.9435 7.42712 35.5311 7.13198 35.0333C6.83684 34.5355 6.67638 33.9695 6.66639 33.3909C6.6564 32.8123 6.79722 32.241 7.075 31.7333L16.2583 14.9333C16.5265 14.4427 16.6669 13.8925 16.6667 13.3333V3.33333" stroke="var(--stroke-0, white)" stroke-width="3" stroke-linecap="round" stroke-linejoin="round"/>
<path id="Vector_2" d="M10.755 25H29.245" stroke="var(--stroke-0, white)" stroke-width="3" stroke-linecap="round" stroke-linejoin="round"/>
<path id="Vector_3" d="M14.1667 3.33333H25.8333" stroke="var(--stroke-0, white)" stroke-width="3" stroke-linecap="round" stroke-linejoin="round"/>
</g>
</svg>
