<svg preserveAspectRatio="none" width="100%" height="100%" overflow="visible" style="display: block;" viewBox="0 0 40 40" fill="none" xmlns="http://www.w3.org/2000/svg">
<g id="badge-percent 1">
<path id="Vector" d="M6.41667 14.3667C6.1734 13.2709 6.21076 12.1314 6.52526 11.0539C6.83977 9.97639 7.42125 8.99574 8.21578 8.20287C9.01032 7.41 9.99218 6.83057 11.0703 6.51832C12.1485 6.20607 13.2881 6.17111 14.3833 6.41667C14.9862 5.47384 15.8167 4.69793 16.7983 4.16048C17.7798 3.62302 18.8809 3.34131 20 3.34131C21.1191 3.34131 22.2202 3.62302 23.2017 4.16048C24.1833 4.69793 25.0138 5.47384 25.6167 6.41667C26.7136 6.17004 27.8551 6.20485 28.935 6.51786C30.0149 6.83086 30.9981 7.4119 31.7931 8.20692C32.5881 9.00194 33.1691 9.98512 33.4821 11.065C33.7952 12.1449 33.83 13.2864 33.5833 14.3833C34.5262 14.9862 35.3021 15.8167 35.8395 16.7983C36.377 17.7798 36.6587 18.8809 36.6587 20C36.6587 21.1191 36.377 22.2202 35.8395 23.2017C35.3021 24.1833 34.5262 25.0138 33.5833 25.6167C33.8289 26.7119 33.7939 27.8515 33.4817 28.9297C33.1694 30.0078 32.59 30.9897 31.7971 31.7842C31.0043 32.5788 30.0236 33.1602 28.9461 33.4747C27.8686 33.7892 26.7291 33.8266 25.6333 33.5833C25.0313 34.5298 24.2001 35.309 23.2169 35.8489C22.2336 36.3887 21.13 36.6718 20.0083 36.6718C18.8866 36.6718 17.783 36.3887 16.7998 35.8489C15.8165 35.309 14.9854 34.5298 14.3833 33.5833C13.2881 33.8289 12.1485 33.7939 11.0703 33.4817C9.99218 33.1694 9.01032 32.59 8.21578 31.7971C7.42125 31.0043 6.83977 30.0236 6.52526 28.9461C6.21076 27.8686 6.1734 26.7291 6.41667 25.6333C5.46659 25.0321 4.68402 24.2003 4.14175 23.2154C3.59947 22.2304 3.31511 21.1243 3.31511 20C3.31511 18.8757 3.59947 17.7696 4.14175 16.7846C4.68402 15.7997 5.46659 14.9679 6.41667 14.3667Z" stroke="var(--stroke-0, white)" stroke-width="3" stroke-linecap="round" stroke-linejoin="round"/>
<path id="Vector_2" d="M25 15L15 25" stroke="var(--stroke-0, white)" stroke-width="3" stroke-linecap="round" stroke-linejoin="round"/>
<path id="Vector_3" d="M15 15H15.02" stroke="var(--stroke-0, white)" stroke-width="3" stroke-linecap="round" stroke-linejoin="round"/>
<path id="Vector_4" d="M25 25H25.02" stroke="var(--stroke-0, white)" stroke-width="3" stroke-linecap="round" stroke-linejoin="round"/>
</g>
</svg>
