<svg preserveAspectRatio="none" width="100%" height="100%" overflow="visible" style="display: block;" viewBox="0 0 40 40" fill="none" xmlns="http://www.w3.org/2000/svg">
<g id="gem 1">
<path id="Vector" d="M17.5 5L13.3333 15L20 36.6667L26.6667 15L22.5 5" stroke="var(--stroke-0, white)" stroke-width="3" stroke-linecap="round" stroke-linejoin="round"/>
<path id="Vector_2" d="M28.3333 5C28.8508 5 29.3612 5.12048 29.824 5.35191C30.2869 5.58334 30.6895 5.91935 31 6.33333L36 13C36.4288 13.5719 36.6624 14.2666 36.6663 14.9814C36.6702 15.6963 36.4442 16.3934 36.0217 16.97L22.705 35.28C22.3963 35.7091 21.9899 36.0587 21.5194 36.2998C21.0489 36.5409 20.5278 36.6667 19.9992 36.6667C19.4705 36.6667 18.9494 36.5409 18.4789 36.2998C18.0085 36.0587 17.6021 35.7091 17.2933 35.28L3.97667 16.97C3.55435 16.3932 3.32864 15.696 3.33284 14.9811C3.33704 14.2663 3.57093 13.5718 4 13L8.99667 6.33833C9.30697 5.92298 9.70989 5.58573 10.1734 5.3534C10.6369 5.12107 11.1482 5.00006 11.6667 5H28.3333Z" stroke="var(--stroke-0, white)" stroke-width="3" stroke-linecap="round" stroke-linejoin="round"/>
<path id="Vector_3" d="M3.33333 15H36.6667" stroke="var(--stroke-0, white)" stroke-width="3" stroke-linecap="round" stroke-linejoin="round"/>
</g>
</svg>
