<svg preserveAspectRatio="none" width="100%" height="100%" overflow="visible" style="display: block;" viewBox="0 0 263.785 45.9931" fill="none" xmlns="http://www.w3.org/2000/svg">
<g id="&#208;&#146;&#208;&#144;&#208;&#153;&#208;&#159;&#226;&#128;&#147;&#208;&#154;&#208;&#187;&#208;&#184;&#208;&#189;">
<path id="Vector" d="M238.751 18.7996H245.28V29.3039H257.257V18.7996H263.785V45.9928H257.257V35.2432H245.28V45.9928H238.751V18.7996Z" fill="url(#paint0_linear_0_4)"/>
<path id="Vector_2" d="M209.151 18.7996H215.63V36.7648L227.803 18.7996H234.43V45.9928H227.95V28.0277L215.777 45.9928H209.151V18.7996Z" fill="url(#paint1_linear_0_4)"/>
<path id="Vector_3" d="M190.878 18.7996H195.983L207.322 45.9928H200.352L193.431 27.9295L186.51 45.9928H179.539L190.878 18.7996Z" fill="url(#paint2_linear_0_4)"/>
<path id="Vector_4" d="M153.708 9.71899H160.433V25.3772L171.673 9.71899H179.772L166.126 27.5369L179.772 45.9929H171.673L160.433 30.0402V45.9929H153.708V9.71899Z" fill="url(#paint3_linear_0_4)"/>
<path id="Vector_5" d="M126.662 28.9603H151.205V34.7523H126.662V28.9603Z" fill="url(#paint4_linear_0_4)"/>
<path id="Vector_6" d="M98.4371 9.71899H124.158V45.9929H117.433V16.1491H105.162V45.9929H98.4371V9.71899Z" fill="url(#paint5_linear_0_4)"/>
<path id="Vector_7" d="M74.7643 0C74.7643 1.30894 75.0097 2.25792 75.5006 2.84694C75.9914 3.43596 76.7604 3.73047 77.8076 3.73047C78.8547 3.73047 79.6237 3.43596 80.1146 2.84694C80.6054 2.25792 80.8508 1.30894 80.8508 0H86.4956C86.1357 2.19247 85.1867 3.89409 83.6487 5.10485C82.1434 6.31562 80.1964 6.921 77.8076 6.921C75.4187 6.921 73.4553 6.31562 71.9173 5.10485C70.4121 3.89409 69.4794 2.19247 69.1195 0H74.7643ZM63.1802 9.71886H69.8558V34.8505L85.6121 9.71886H92.435V45.9928H85.7594V20.8612L70.003 45.9928H63.1802V9.71886Z" fill="url(#paint6_linear_0_4)"/>
<path id="Vector_8" d="M39.804 9.71899H45.1052L60.3216 45.9929H52.9097L49.032 36.6176H36.1226L32.0976 45.9929H24.6857L39.804 9.71899ZM46.3323 30.1875L42.4546 19.1924L38.5768 30.1875H46.3323Z" fill="url(#paint7_linear_0_4)"/>
<path id="Vector_9" d="M0.000119222 9.71899H7.46108C12.2387 9.71899 15.7565 10.5044 18.0144 12.0751C20.2723 13.6131 21.4013 16.051 21.4013 19.3888C21.4013 21.1231 21.0904 22.5139 20.4687 23.561C19.8796 24.5754 18.8489 25.459 17.3763 26.2116C19.5688 27.0951 21.1395 28.2404 22.0885 29.6476C23.0702 31.0547 23.561 32.9035 23.561 35.1942C23.561 38.6629 22.3503 41.3298 19.9287 43.1951C17.5399 45.0603 14.1203 45.9929 9.66991 45.9929H0.000119222V9.71899ZM10.0626 39.5628C12.4187 39.5628 14.1203 39.2028 15.1675 38.4829C16.2473 37.763 16.7873 36.6013 16.7873 34.9978C16.7873 33.558 16.3619 32.4127 15.5111 31.5619C14.6602 30.7111 13.5149 30.2857 12.0751 30.2857H6.7248V39.5628H10.0626ZM11.0443 23.7083C12.1896 23.7083 13.0732 23.381 13.6949 22.7266C14.3494 22.0394 14.6766 21.1231 14.6766 19.9778C14.6766 17.5235 12.9423 16.2964 9.47357 16.2964H6.7248V23.7083H11.0443Z" fill="url(#paint8_linear_0_4)"/>
</g>
<defs>
<linearGradient id="paint0_linear_0_4" x1="-3.48491" y1="31.6764" x2="266.484" y2="31.6764" gradientUnits="userSpaceOnUse">
<stop stop-color="#002E3D"/>
<stop offset="1" stop-color="#006180"/>
</linearGradient>
<linearGradient id="paint1_linear_0_4" x1="-3.4849" y1="31.6764" x2="266.484" y2="31.6764" gradientUnits="userSpaceOnUse">
<stop stop-color="#002E3D"/>
<stop offset="1" stop-color="#006180"/>
</linearGradient>
<linearGradient id="paint2_linear_0_4" x1="-3.48484" y1="31.6764" x2="266.484" y2="31.6764" gradientUnits="userSpaceOnUse">
<stop stop-color="#002E3D"/>
<stop offset="1" stop-color="#006180"/>
</linearGradient>
<linearGradient id="paint3_linear_0_4" x1="-3.48499" y1="31.6763" x2="266.484" y2="31.6763" gradientUnits="userSpaceOnUse">
<stop stop-color="#002E3D"/>
<stop offset="1" stop-color="#006180"/>
</linearGradient>
<linearGradient id="paint4_linear_0_4" x1="-3.48485" y1="31.6763" x2="266.484" y2="31.6763" gradientUnits="userSpaceOnUse">
<stop stop-color="#002E3D"/>
<stop offset="1" stop-color="#006180"/>
</linearGradient>
<linearGradient id="paint5_linear_0_4" x1="-3.48488" y1="31.6763" x2="266.484" y2="31.6763" gradientUnits="userSpaceOnUse">
<stop stop-color="#002E3D"/>
<stop offset="1" stop-color="#006180"/>
</linearGradient>
<linearGradient id="paint6_linear_0_4" x1="-3.48492" y1="31.6764" x2="266.484" y2="31.6764" gradientUnits="userSpaceOnUse">
<stop stop-color="#002E3D"/>
<stop offset="1" stop-color="#006180"/>
</linearGradient>
<linearGradient id="paint7_linear_0_4" x1="-3.48497" y1="31.6763" x2="266.484" y2="31.6763" gradientUnits="userSpaceOnUse">
<stop stop-color="#002E3D"/>
<stop offset="1" stop-color="#006180"/>
</linearGradient>
<linearGradient id="paint8_linear_0_4" x1="-3.48489" y1="31.6763" x2="266.484" y2="31.6763" gradientUnits="userSpaceOnUse">
<stop stop-color="#002E3D"/>
<stop offset="1" stop-color="#006180"/>
</linearGradient>
</defs>
</svg>
